<?xml version="1.0" encoding="UTF-8"?>
<svg width="20px" height="19px" viewBox="0 0 20 19" version="1.1" xmlns="http://www.w3.org/2000/svg" xmlns:xlink="http://www.w3.org/1999/xlink">
    <!-- Generator: sketchtool 52.4 (67378) - http://www.bohemiancoding.com/sketch -->
    <title>D6D94225-FE0F-4DA2-904B-49322FCDBDC6</title>
    <desc>Created with sketchtool.</desc>
    <g id="Page-2" stroke="none" stroke-width="1" fill="none" fill-rule="evenodd">
        <g id="web/navigation/site-chrome/extra-small" transform="translate(-228.000000, -86.000000)" fill="#2D2D2D">
            <g id="web/navigation/site-chrome/extra-small-copy-2">
                <g id="Group-3" transform="translate(0.000000, 70.000000)">
                    <g id="icons/product/save-for-later" transform="translate(228.000000, 16.182609)">
                        <path d="M10.4610167,15.7040891 C11.5285184,15.0614792 12.5980296,14.3044285 13.5863875,13.4482525 C16.2510825,11.1399309 17.7814081,8.60195176 17.7777707,5.95174014 C17.7752122,3.81729761 16.4964476,2.51276573 14.4459808,2.51522167 C13.6981864,2.51575419 12.4510542,3.2101595 11.578034,4.1223362 L10.0002757,5.77085964 L8.41774958,4.12719283 C7.53575004,3.21111737 6.30302745,2.52524537 5.55798854,2.52619933 C3.49713691,2.52852337 2.22048341,3.82486028 2.22222311,5.94612956 C2.22535222,8.59642352 3.7629072,11.1363362 6.43407358,13.4462084 C7.42469582,14.302842 8.49616757,15.0603209 9.56532605,15.7033395 C9.72005744,15.7963988 9.86993389,15.8841215 10.0140174,15.9662987 C10.1575769,15.8843436 10.3068871,15.7968714 10.4610167,15.7040891 Z M9.99556076,2.51521814 L10.1150304,2.39316173 C11.1854676,1.32336306 12.8974856,0.227193522 14.4444445,0.226091886 C17.690388,0.22220367 19.9958797,2.51882122 19.9999912,5.94891363 C20.010811,13.8321566 10.0287743,18.5391304 10.0143872,18.5391304 C10.0000001,18.5391304 0.0093076008,13.8300982 2.56296268e-06,5.94891363 C-0.00281058801,2.51904994 2.31047793,0.240729875 5.55555577,0.237070377 C7.10259068,0.235089471 8.80051215,1.3252912 9.87256072,2.39030254 L9.99556076,2.51521814 Z" id="web/icons/product/save-for-later"></path>
                    </g>
                </g>
            </g>
        </g>
    </g>
</svg>