<?xml version="1.0" encoding="UTF-8"?>
<svg width="44px" height="44px" viewBox="0 0 44 44" version="1.1" xmlns="http://www.w3.org/2000/svg" xmlns:xlink="http://www.w3.org/1999/xlink">
    <!-- Generator: sketchtool 52.4 (67378) - http://www.bohemiancoding.com/sketch -->
    <title>FBD756C6-063A-4A12-973C-F0FCC0C66E24</title>
    <desc>Created with sketchtool.</desc>
    <g id="Symbols" stroke="none" stroke-width="1" fill="none" fill-rule="evenodd">
        <g id="icons/payment-methods/klarna" fill="#0074C8">
            <g id="web/icons/payment-methods/klarna" transform="translate(6.000000, 12.000000)">
                <path d="M0,1.99079514 C0,0.891309342 0.889261723,0 2.00174332,0 L29.9982567,0 C31.103789,0 32,0.898212381 32,1.99079514 L32,18.0092049 C32,19.1086907 31.1107383,20 29.9982567,20 L2.00174332,20 C0.89621101,20 0,19.1017876 0,18.0092049 L0,1.99079514 Z M22.3028718,9.81461263 C22.3004572,9.60100223 22.2759086,9.38492711 22.2304332,9.17501382 C22.139885,8.74163119 21.8964108,8.4364148 21.4493037,8.35672169 C20.9611481,8.26840201 20.4959314,8.33905776 20.0769949,8.62907495 C20.0359463,8.65700861 19.9948978,8.68247754 19.9244714,8.72807515 C19.9212519,8.64386336 19.9164226,8.59169313 19.9156178,8.53870132 C19.9123983,8.40067614 19.889057,8.37479642 19.7530334,8.37397484 C19.5369249,8.37274247 19.3228286,8.37233168 19.1083299,8.37438563 C18.9819648,8.37520721 18.9441358,8.41546455 18.9441358,8.54404158 C18.9437333,9.76531792 18.9437333,10.9861835 18.9441358,12.2074598 C18.9441358,12.3508253 18.9819648,12.390261 19.1195981,12.3910826 C19.3574382,12.3919042 19.5952782,12.3886179 19.8331183,12.3931365 C19.9393615,12.3943689 19.9872515,12.3516468 19.9852393,12.240323 C19.9812149,11.9979573 19.984032,11.7555917 19.984032,11.5124045 C19.984032,10.8666438 19.9828247,10.2208832 19.9864466,9.57512251 C19.9864466,9.52171992 20.0001295,9.44161602 20.0351415,9.4194334 C20.2991399,9.25347456 20.5824553,9.15159883 20.8975631,9.20500143 C21.0710133,9.23416746 21.1925492,9.33809714 21.2251465,9.52089834 C21.2480854,9.64742142 21.2653902,9.77599844 21.2653902,9.90416468 C21.2702194,10.6719297 21.2678048,11.4388732 21.2678048,12.2062275 C21.2678048,12.3734187 21.2867193,12.3919042 21.4545354,12.3919042 C21.6694366,12.3931365 21.8847402,12.3931365 22.0992389,12.3919042 C22.2847622,12.3919042 22.3060913,12.3709539 22.3060913,12.185688 C22.3060913,11.3961511 22.311323,10.6057927 22.3028718,9.81461263 Z M15.5560191,9.578882 C15.5405913,8.96393335 15.2040224,8.55242002 14.634819,8.40680761 C14.0034986,8.24389053 13.3778621,8.33927722 12.7554735,8.47729246 C12.6815826,8.49333093 12.6511331,8.54862143 12.652757,8.62923584 C12.656005,8.77315999 12.653569,8.91835034 12.653569,9.06311862 C12.653569,9.26950838 12.6795526,9.27963794 12.8760537,9.26739806 C13.2767696,9.24376242 13.6782975,9.22603569 14.0794194,9.22603569 C14.3189558,9.22603569 14.4643016,9.36658333 14.504089,9.59196601 C14.5166748,9.6620288 14.5118029,9.73631223 14.5118029,9.80848534 C14.5126149,10.0883144 14.5122089,10.0908468 14.2466889,10.0874703 C13.8756105,10.0836717 13.5057501,10.0963336 13.1464456,10.209447 C12.7753672,10.3250928 12.5086292,10.55343 12.4282424,10.9645213 C12.3766812,11.2300001 12.3819591,11.4980114 12.4440762,11.7647564 C12.5301469,12.1340633 12.7453236,12.385614 13.0969143,12.4945067 C13.4874804,12.6139511 13.8743926,12.5966465 14.2458769,12.4096717 C14.3522473,12.3560694 14.4533398,12.2902273 14.572296,12.2214307 C14.5771679,12.2598386 14.5808219,12.2792536 14.5816338,12.2990907 C14.5905657,12.4805786 14.6124894,12.5033701 14.7895027,12.5033701 C14.9981835,12.5037922 15.2068644,12.5042142 15.4159512,12.5033701 C15.5373434,12.502526 15.5803787,12.4624298 15.5799727,12.3396089 C15.5746948,11.4190852 15.5791608,10.4981395 15.5560191,9.578882 Z M14.5365685,11.4452532 C14.5487483,11.5566784 14.506931,11.6132351 14.4090865,11.6520651 C14.1817299,11.7436532 13.9519374,11.7930348 13.7079351,11.74914 C13.5560934,11.7221279 13.4448511,11.6284294 13.4318592,11.4680448 C13.4204914,11.3215882 13.4286113,11.170489 13.4562189,11.0274089 C13.4858564,10.8746214 13.5938508,10.7627742 13.7412266,10.7433592 C13.9815749,10.7125485 14.2247652,10.7057954 14.4667376,10.6969321 C14.4882553,10.6960879 14.5292606,10.7505343 14.5312906,10.7817671 C14.5390045,10.9058542 14.5345386,11.0307855 14.5345386,11.1552946 C14.5345386,11.2523696 14.5272307,11.3494445 14.5365685,11.4452532 Z M26.0243135,9.80360917 C26.0239051,9.6801867 26.0181866,9.55507929 25.9998059,9.43123558 C25.9270998,8.9510253 25.67753,8.60813831 25.2253635,8.45270182 C25.0358375,8.38741007 24.8336492,8.3423377 24.6347286,8.32927935 C24.1592798,8.29852905 23.6895495,8.357081 23.2243122,8.46533893 C23.1221969,8.48977069 23.0793085,8.54705893 23.0797169,8.64984078 C23.0801254,8.78210923 23.0797169,8.91479891 23.0797169,9.04706736 C23.0797169,9.26021332 23.1083092,9.27664157 23.3092721,9.26568941 C23.7095641,9.24252137 24.1094476,9.22398693 24.509331,9.22145951 C24.7674785,9.22061704 24.9120738,9.35751909 24.9557791,9.62079227 C24.9753852,9.73873866 24.9647652,9.86131865 24.9708922,9.98052875 C24.9749768,10.0597213 24.9386237,10.085838 24.8651007,10.0833106 C24.6976316,10.0807832 24.5281203,10.0660399 24.3631019,10.0866805 C24.0792214,10.1212219 23.7912563,10.1549209 23.5167704,10.2341135 C23.1528315,10.339844 22.9167409,10.6022747 22.8571056,10.9973951 C22.8330064,11.1612563 22.837091,11.3314361 22.8448518,11.498246 C22.8758948,12.1755952 23.3770767,12.6204216 24.0326569,12.5656608 C24.3639189,12.5391228 24.6759832,12.4578241 24.9472014,12.2493117 C24.9655822,12.2358321 24.9888645,12.2282499 25.0141891,12.2164552 C25.0260344,12.2349897 25.0333867,12.2396233 25.0342036,12.2472055 C25.0382883,12.2674249 25.0403306,12.2872231 25.0411475,12.3078637 C25.0501336,12.4826771 25.0611621,12.493208 25.2351665,12.493208 C25.4377633,12.4944717 25.6395431,12.4944717 25.8421398,12.493208 C26.0051159,12.493208 26.0251304,12.4742523 26.0251304,12.3087061 C26.0255389,11.4738142 26.0263558,10.6385011 26.0243135,9.80360917 Z M24.9953998,11.4776054 C24.9982591,11.5542705 24.9663991,11.5947093 24.9014538,11.6246171 C24.662504,11.7337175 24.4170188,11.7897421 24.1543783,11.7455122 C23.9652608,11.7122344 23.8545678,11.579966 23.8578355,11.334806 C23.8639624,10.9182025 23.9530069,10.7299095 24.4443857,10.691577 C24.5910233,10.6797823 24.7401116,10.6919982 24.8875661,10.6886283 C24.9704837,10.6848372 24.9970337,10.7248547 24.9953998,10.8040473 C24.9917237,10.9203087 24.993766,11.0374126 24.993766,11.1528316 C24.9945829,11.2606683 24.9904983,11.368505 24.9953998,11.4776054 Z M11.6678404,6.9047619 L10.9863611,6.9047619 C10.8157858,6.90517907 10.7997558,6.92228296 10.7997558,7.09749349 L10.7997558,9.63721192 L10.7997558,12.2249047 C10.7997558,12.3679933 10.8240063,12.3917718 10.9629327,12.3926062 C11.1857082,12.3938577 11.4088947,12.3926062 11.6324923,12.3926062 C11.842526,12.3926062 11.8618442,12.3738336 11.8618442,12.163581 L11.8618442,7.81126784 C11.8618442,7.57264778 11.8622552,7.33444488 11.8618442,7.09582482 C11.8614332,6.93354649 11.8318394,6.90517907 11.6678404,6.9047619 Z M18.2645985,8.32138174 C17.9645292,8.33454405 17.6934988,8.43079343 17.4507008,8.60971856 C17.4176287,8.63439789 17.3845565,8.6570206 17.3349483,8.69321695 C17.3309151,8.63686582 17.3264786,8.60354873 17.3264786,8.56982031 C17.323252,8.40117823 17.294213,8.36991775 17.1324821,8.36991775 C16.9239662,8.36909511 16.7174669,8.36950643 16.5097577,8.36950643 C16.3197944,8.36991775 16.2883355,8.40117823 16.2883355,8.59408832 L16.2883355,10.2163428 C16.2883355,10.8719903 16.2879322,11.5264038 16.2883355,12.1799947 C16.2883355,12.3535726 16.3258442,12.3922369 16.4875751,12.3922369 C16.706174,12.3934709 16.9259828,12.3934709 17.144985,12.3922369 C17.3216387,12.3922369 17.3498711,12.3650897 17.3498711,12.1791721 C17.3502744,11.3100484 17.351081,10.4396907 17.3482578,9.56851046 C17.3482578,9.48254413 17.3728602,9.4335968 17.4502975,9.39616648 C17.7068084,9.27318116 17.9697723,9.181045 18.2581454,9.19297335 C18.363815,9.19749789 18.4150365,9.156777 18.4126165,9.04284077 C18.40818,8.85034201 18.4089867,8.65907721 18.4122132,8.46698978 C18.4126165,8.36210263 18.3666382,8.31726852 18.2645985,8.32138174 Z M7.09975928,6.90596972 C6.90475931,6.90471388 6.70975934,6.90387665 6.51437323,6.90638833 C6.30971979,6.90973725 6.1965812,7.03615868 6.1965812,7.25886135 L6.1965812,9.72449797 L6.1965812,12.2261354 C6.1965812,12.3722317 6.21472971,12.3919066 6.3498782,12.3919066 C6.54835342,12.393581 6.74721478,12.393581 6.94569,12.3919066 C7.15420482,12.3902321 7.25884837,12.2776249 7.25884837,12.0528292 L7.25884837,7.08555514 C7.25923451,6.94029607 7.23104639,6.90722556 7.09975928,6.90596972 Z M9.39859517,10.5235022 C8.95210227,10.0555302 8.40288366,9.79802393 7.80391992,9.73841224 C7.61060144,9.73476255 7.60898371,9.73476255 7.61424132,9.88115587 C7.61626348,9.93509025 7.62677871,9.98821359 7.63486735,10.0417425 C7.74204183,10.753433 8.08904445,11.3203523 8.6665733,11.7441224 C9.04512163,12.0231213 9.47341508,12.1678926 9.93972514,12.2116889 C10.0784453,12.2250711 10.1019024,12.2153386 10.0881517,12.0790833 C10.0287002,11.4853996 9.81313793,10.958627 9.39859517,10.5235022 Z M9.94165256,6.9124313 C9.88873671,6.92087285 9.83380117,6.91765702 9.78128927,6.92569659 C9.17457475,7.0217695 8.6595541,7.28908534 8.24996121,7.74693908 C7.87470303,8.16580089 7.66627115,8.65983272 7.61699074,9.21777916 C7.60446867,9.36329545 7.61254743,9.36369743 7.76644771,9.38339438 C7.97770716,9.33153913 8.1974493,9.29978281 8.39941818,9.22340686 C9.40805077,8.84233105 9.95982976,8.10269024 10.0870702,7.04146646 C10.1032277,6.90680359 10.0806071,6.8915284 9.94165256,6.9124313 Z"></path>
            </g>
        </g>
    </g>
</svg>