<?xml version="1.0" encoding="UTF-8"?>
<svg width="44px" height="44px" viewBox="0 0 44 44" version="1.1" xmlns="http://www.w3.org/2000/svg" xmlns:xlink="http://www.w3.org/1999/xlink">
    <!-- Generator: sketchtool 52.4 (67378) - http://www.bohemiancoding.com/sketch -->
    <title>4F659766-E102-4B86-B8FE-0F07906238AF</title>
    <desc>Created with sketchtool.</desc>
    <g id="Symbols" stroke="none" stroke-width="1" fill="none" fill-rule="evenodd">
        <g id="icons/payment-methods/paypal">
            <g id="web/icons/payment-methods/paypal" transform="translate(6.000000, 12.000000)">
                <rect id="Rectangle-52" stroke="#D8D8D8" fill="#F7F7F7" x="0.5" y="0.5" width="31" height="19" rx="2"></rect>
                <g id="logo" transform="translate(7.636364, 2.000000)">
                    <g id="text" transform="translate(0.000000, 11.098660)">
                        <path d="M15.5830137,0.169757282 L15.0634275,3.44968523 C15.0533068,3.51317189 15.1027678,3.57066618 15.1675733,3.57066618 L15.6902609,3.57066618 C15.776777,3.57066618 15.8505605,3.50815126 15.863946,3.42328644 L16.3763497,0.202310389 C16.3864705,0.138823733 16.3370094,0.08132944 16.2720407,0.08132944 L15.6873227,0.08132944 C15.6352498,0.08132944 15.5910123,0.118741219 15.5830137,0.169757282" id="l" fill="#2890C3"></path>
                        <path d="M14.0236023,2.41397818 C13.9649999,2.75764829 13.6901073,2.98843524 13.3393091,2.98843524 C13.1635019,2.98843524 13.0226276,2.9322366 12.9321939,2.82599362 C12.842413,2.72072238 12.808786,2.57058939 12.8371894,2.40361301 C12.8917109,2.0628581 13.1711741,1.82478314 13.5165854,1.82478314 C13.6888014,1.82478314 13.828533,1.88146766 13.9207624,1.98868237 C14.0136448,2.09670686 14.05021,2.24764962 14.0236023,2.41397818 M14.8685215,1.24320003 L14.262256,1.24320003 C14.2103464,1.24320003 14.1661089,1.28061181 14.157947,1.33162787 L14.1313393,1.49973794 L14.0888974,1.43884258 C13.9576542,1.24984021 13.6649687,1.18651551 13.3727729,1.18651551 C12.7030079,1.18651551 12.1308592,1.69019791 12.0195309,2.39648696 C11.9615815,2.74890268 12.0438534,3.0856087 12.2452889,3.3206065 C12.4302374,3.53649352 12.6941931,3.62637896 13.0087524,3.62637896 C13.5487433,3.62637896 13.8481216,3.28238494 13.8481216,3.28238494 L13.8210241,3.44952328 C13.8109033,3.51300993 13.8603644,3.57050423 13.9253331,3.57050423 L14.4712005,3.57050423 C14.5578798,3.57050423 14.6315001,3.50815126 14.6450489,3.42328644 L14.9728305,1.36418098 C14.9829512,1.30069432 14.9333269,1.24320003 14.8685215,1.24320003" id="a" fill="#2890C3"></path>
                        <path d="M11.2304391,1.25761409 C11.1612262,1.70849891 10.8141825,1.70849891 10.4784022,1.70849891 L10.2874139,1.70849891 L10.4214322,0.866652896 C10.4294308,0.815798789 10.4736683,0.77838701 10.5255779,0.77838701 L10.6132367,0.77838701 C10.8417697,0.77838701 11.0575702,0.77838701 11.1688984,0.907465746 C11.2354994,0.984718642 11.2555777,1.09938332 11.2304391,1.25761409 M11.0843412,0.0811674842 L9.81826824,0.0811674842 C9.73158893,0.0811674842 9.65796865,0.143682406 9.64441991,0.228547221 L9.13250594,3.44952328 C9.12238519,3.51300993 9.17200951,3.57050423 9.2366517,3.57050423 L9.88633843,3.57050423 C9.94689968,3.57050423 9.99848285,3.52677617 10.0079506,3.46750037 L10.1532323,2.55423186 C10.1666179,2.46936705 10.2404014,2.40685213 10.3269174,2.40685213 L10.7275032,2.40685213 C11.5614855,2.40685213 12.0428739,2.0064975 12.1685671,1.21275234 C12.2252106,0.865843117 12.1708524,0.593109626 12.0071249,0.402163791 C11.8270735,0.192269132 11.5079434,0.0811674842 11.0843412,0.0811674842" id="P" fill="#2890C3"></path>
                        <path d="M9.06721079,1.24320003 L8.45784382,1.24320003 C8.3995679,1.24320003 8.34504645,1.2718662 8.31239888,1.3198051 L7.47172384,2.54807754 L7.11553881,1.367744 C7.09317522,1.29389218 7.02461531,1.24320003 6.94691408,1.24320003 L6.34799433,1.24320003 C6.27567996,1.24320003 6.22474974,1.31381274 6.24809276,1.3816722 L6.91900041,3.33583034 L6.2879228,4.21929898 C6.23846172,4.28861604 6.28841251,4.38449385 6.37411239,4.38449385 L6.98282642,4.38449385 C7.04044938,4.38449385 7.09448112,4.35647551 7.12745517,4.30950834 L9.1538901,1.40758512 C9.20237175,1.3381061 9.15242096,1.24320003 9.06721079,1.24320003" id="y" fill="#28346A"></path>
                        <path d="M4.99328324,2.41397818 C4.93468085,2.75764829 4.65978827,2.98843524 4.30899009,2.98843524 C4.1331829,2.98843524 3.99230862,2.9322366 3.90187483,2.82599362 C3.81225724,2.72072238 3.778467,2.57058939 3.80687039,2.40361301 C3.86139184,2.0628581 4.14085508,1.82478314 4.48626641,1.82478314 C4.65848237,1.82478314 4.79821399,1.88146766 4.89044338,1.98868237 C4.98332573,2.09670686 5.01989101,2.24764962 4.99328324,2.41397818 M5.83820246,1.24320003 L5.23193701,1.24320003 C5.18002737,1.24320003 5.1357899,1.28061181 5.12762801,1.33162787 L5.10102024,1.49973794 L5.05874163,1.43884258 C4.92733514,1.24984021 4.63464964,1.18651551 4.34245385,1.18651551 C3.67268886,1.18651551 3.10054013,1.69019791 2.9892119,2.39648696 C2.93126245,2.74890268 3.01353434,3.0856087 3.21496987,3.3206065 C3.39991838,3.53649352 3.66387402,3.62637896 3.9784334,3.62637896 C4.51842427,3.62637896 4.81780253,3.28238494 4.81780253,3.28238494 L4.79070504,3.44952328 C4.7805843,3.51300993 4.83004537,3.57050423 4.89501404,3.57050423 L5.44088148,3.57050423 C5.52756079,3.57050423 5.60118107,3.50815126 5.61472982,3.42328644 L5.94251146,1.36418098 C5.95263221,1.30069432 5.9030079,1.24320003 5.83820246,1.24320003" id="a" fill="#28346A"></path>
                        <path d="M2.20012003,1.25761409 C2.13090717,1.70849891 1.78386346,1.70849891 1.44808316,1.70849891 L1.25709485,1.70849891 L1.39111314,0.866652896 C1.39911179,0.815798789 1.44334926,0.77838701 1.4952589,0.77838701 L1.58291764,0.77838701 C1.81145066,0.77838701 2.02725112,0.77838701 2.13857935,0.907465746 C2.2051804,0.984718642 2.22525866,1.09938332 2.20012003,1.25761409 M2.05402213,0.0811674842 L0.787949204,0.0811674842 C0.701269895,0.0811674842 0.627649615,0.143682406 0.614100871,0.228547221 L0.102186907,3.44952328 C0.0920661593,3.51300993 0.141527234,3.57050423 0.206332669,3.57050423 L0.810965744,3.57050423 C0.897481816,3.57050423 0.971102096,3.5079893 0.984650839,3.42328644 L1.12291332,2.55423186 C1.13629882,2.46936705 1.21008234,2.40685213 1.29659841,2.40685213 L1.69718415,2.40685213 C2.53116643,2.40685213 3.01255491,2.0064975 3.13824807,1.21275234 C3.19489161,0.865843117 3.1405334,0.593109626 2.97680582,0.402163791 C2.79675445,0.192269132 2.47762441,0.0811674842 2.05402213,0.0811674842" id="P" fill="#28346A"></path>
                    </g>
                    <g id="icon" transform="translate(4.250714, 0.000000)">
                        <path d="M7.41648014,0.768862107 C6.94216572,0.230715042 6.084773,0 4.98795634,0 L1.80460959,0 C1.58020277,0 1.38951364,0.162459491 1.35437924,0.382738767 L0.0289056265,8.75081282 C0.00255482565,8.91581074 0.130908726,9.06529603 0.298930499,9.06529603 L2.26419022,9.06529603 L2.75777189,5.94895068 L2.74247143,6.0465392 C2.77760583,5.82625992 2.96687825,5.66380043 3.19100172,5.66380043 L4.12489677,5.66380043 C5.95953586,5.66380043 7.39607952,4.92201491 7.81570894,2.77619579 C7.82817598,2.71273505 7.83894298,2.6509666 7.84829326,2.59060838 C7.79530832,2.56268566 7.79530832,2.56268566 7.84829326,2.59060838 C7.97324706,1.79749017 7.84744324,1.25765082 7.41648014,0.768862107" id="P" fill="#28346A"></path>
                        <path d="M7.84014083,2.56470165 L7.84014083,2.56470165 C7.83052068,2.62509343 7.82005169,2.68632789 7.80760208,2.74952859 C7.38855959,4.88627413 5.95402517,5.62530102 4.12195213,5.62530102 L3.18908035,5.62530102 C2.96527034,5.62530102 2.77626265,5.78709482 2.74146034,6.00647148 L2.12831713,9.86536595 C2.10539853,10.0091827 2.21744501,10.1395166 2.36401085,10.1395166 L4.01839403,10.1395166 C4.21419241,10.1395166 4.3808474,9.99794698 4.41140553,9.80609773 L4.42753343,9.72239191 L4.73933953,7.7606421 L4.75942867,7.65221778 C4.7899868,7.46036854 4.95664178,7.31879896 5.15244017,7.31879896 L5.4000176,7.31879896 C7.00262173,7.31879896 8.25748566,6.67246644 8.62418321,4.8031301 C8.7772568,4.02196941 8.69803202,3.36973816 8.29313681,2.91160328 C8.1703384,2.77284263 8.0178307,2.65823869 7.84014083,2.56470165" id="shadow" fill="#2890C3"></path>
                        <path d="M7.40157509,2.39111038 C7.33762937,2.37257151 7.27170304,2.35571799 7.20379608,2.34083071 C7.13588913,2.32594344 7.06571861,2.31274151 6.99385041,2.30122494 C6.74202879,2.26077649 6.46700563,2.24167583 6.17161037,2.24167583 L3.67970809,2.24167583 C3.61830889,2.24167583 3.56002209,2.25543954 3.50796009,2.28043893 C3.39280121,2.33521287 3.30763457,2.44307541 3.28669659,2.57537555 L2.75702235,5.90928284 L2.74174328,6.00647148 C2.7765456,5.78709482 2.96555329,5.62530102 3.18936329,5.62530102 L4.12223508,5.62530102 C5.95430812,5.62530102 7.38884253,4.88655502 7.80788503,2.74952859 C7.82033464,2.68632789 7.83080363,2.62509343 7.84042378,2.56470165 C7.73431916,2.50908503 7.61944323,2.4610525 7.49579598,2.42032315 C7.46495491,2.41021104 7.43354794,2.40037982 7.40157509,2.39111038" id="fill" fill="#1F274F"></path>
                    </g>
                </g>
            </g>
        </g>
    </g>
</svg>