<?xml version="1.0" encoding="UTF-8"?>
<svg width="44px" height="44px" viewBox="0 0 44 44" version="1.1" xmlns="http://www.w3.org/2000/svg" xmlns:xlink="http://www.w3.org/1999/xlink">
    <!-- Generator: sketchtool 52.4 (67378) - http://www.bohemiancoding.com/sketch -->
    <title>F3EE6770-C481-4375-9D68-65C8D2A41494</title>
    <desc>Created with sketchtool.</desc>
    <g id="Symbols" stroke="none" stroke-width="1" fill="none" fill-rule="evenodd">
        <g id="icons/general/search/large" fill="#2D2D2D">
            <path d="M27.9897017,25.9897017 L32,30 L30,32 L25.821201,27.821201 C24.5550084,28.5701603 23.0777014,29 21.5,29 C16.8055796,29 13,25.1944204 13,20.5 C13,15.8055796 16.8055796,12 21.5,12 C26.1944204,12 30,15.8055796 30,20.5 C30,22.5926489 29.2437775,24.5086725 27.9897017,25.9897017 Z M28,20.5 C28,16.9109056 25.0906043,14 21.5,14 C17.9093957,14 15,16.9109056 15,20.5 C15,24.0890944 17.9093957,27 21.5,27 C25.0906043,27 28,24.0890944 28,20.5 Z" id="web/icons/general/search-large"></path>
        </g>
    </g>
</svg>