<?xml version="1.0" encoding="UTF-8"?>
<svg width="20px" height="20px" viewBox="0 0 20 20" version="1.1" xmlns="http://www.w3.org/2000/svg" xmlns:xlink="http://www.w3.org/1999/xlink">
    <!-- Generator: sketchtool 52.4 (67378) - http://www.bohemiancoding.com/sketch -->
    <title>F3E5F033-2B80-4A52-940D-CFBF6C574A76</title>
    <desc>Created with sketchtool.</desc>
    <g id="Page-2" stroke="none" stroke-width="1" fill="none" fill-rule="evenodd">
        <g id="web/navigation/site-chrome/large" transform="translate(-841.000000, -50.000000)" fill="#2D2D2D">
            <g id="top_bar">
                <g transform="translate(0.000000, 30.000000)">
                    <g id="icons/my-account/my-account" transform="translate(841.000000, 20.000000)">
                        <path d="M10,2 C7.79063965,2 6,3.79055949 6,6 C6,8.20944051 7.79063965,10 10,10 C12.2093604,10 14,8.20944051 14,6 C14,3.79055949 12.2093604,2 10,2 Z M10,12 C6.68622449,12 4,9.31416435 4,6 C4,2.68583565 6.68622449,0 10,0 C13.3137755,0 16,2.68583565 16,6 C16,9.31416435 13.3137755,12 10,12 Z M2.94918013,18.0207517 C4.30961813,16.2327815 6.92036083,15 10.0004658,15 C13.0444339,15 15.6301718,16.2045218 17.0032529,17.9590859 C17.0032529,18.0207517 2.94918013,18 2.94918013,18.0207517 Z M0,20 L20,20 C19.4465924,15.9938955 15.1814413,13 10.0004658,13 C4.81855872,13 0.553407556,15.9938955 0,20 Z" id="web/icons/my-account/my-account"></path>
                    </g>
                </g>
            </g>
        </g>
    </g>
</svg>