<?xml version="1.0" encoding="UTF-8"?>
<svg width="44px" height="44px" viewBox="0 0 44 44" version="1.1" xmlns="http://www.w3.org/2000/svg" xmlns:xlink="http://www.w3.org/1999/xlink">
    <!-- Generator: sketchtool 52.4 (67378) - http://www.bohemiancoding.com/sketch -->
    <title>3F4CA89E-25BB-4F28-8034-71202DCF6B20</title>
    <desc>Created with sketchtool.</desc>
    <g id="Symbols" stroke="none" stroke-width="1" fill="none" fill-rule="evenodd">
        <g id="icons/payment-methods/visa">
            <g id="web/icons/payment-methods/visa" transform="translate(6.000000, 12.000000)">
                <rect id="Rectangle-52" stroke="#D8D8D8" fill="#F7F7F7" x="0.5" y="0.5" width="31" height="19" rx="2"></rect>
                <g id="logo" transform="translate(3.727273, 6.363636)">
                    <path d="M20.3135085,6.72727273 L20.1098775,5.75521682 L17.900566,5.75521682 L17.5383977,6.72727273 L15.7272727,6.72727273 L18.3186051,0.669375835 C18.3186051,0.669375835 18.476008,0.181818182 19.1212177,0.181818182 L20.5179904,0.181818182 L21.9090909,6.72727273 L20.3135085,6.72727273 Z M18.4318182,4.4171123 L19.7840909,4.4171123 L19.2970469,1.9144385 L18.4318182,4.4171123 Z" id="a" fill="#0066B2"></path>
                    <path d="M16.029562,1.67898765 L16.2727273,0.283329166 C16.2727273,0.283329166 15.5226665,0 14.7412026,0 C13.8960989,0 11.8893598,0.3670024 11.8893598,2.15147908 C11.8893598,3.83074288 14.2448675,3.85173022 14.2448675,4.73292259 C14.2448675,5.61466726 12.1322472,5.45726217 11.4347101,4.90109751 L11.1818182,6.35999418 C11.1818182,6.35999418 11.9418835,6.72727273 13.1040748,6.72727273 C14.2657102,6.72727273 16.0192795,6.12913338 16.0192795,4.50233794 C16.0192795,2.81258047 13.6426512,2.65489922 13.6426512,1.92034213 C13.6426512,1.18550888 15.3011776,1.27995194 16.029562,1.67898765" id="s" fill="#0066B2"></path>
                    <polyline id="i" fill="#0066B2" points="9.95077507 6.72727273 8.27272727 6.72727273 9.32140444 0.181818182 11 0.181818182 9.95077507 6.72727273"></polyline>
                    <path d="M6.96786569,0.181818182 L5.32909443,4.68386937 L5.13494451,3.71431662 L5.13494451,3.71459474 L4.55642262,0.771170531 C4.55642262,0.771170531 4.48684288,0.181818182 3.74110516,0.181818182 L1.03170367,0.181818182 L1,0.29251296 C1.00028056,0.29251296 1.82878451,0.463283296 2.79869244,1.04067616 L4.29185126,6.72727273 L6.08296849,6.72727273 L8.81818182,0.181818182 L6.96786569,0.181818182" id="v" fill="#0066B2"></path>
                    <path d="M3.59673818,0.788451353 C3.59673818,0.788451353 3.52636968,0.181818182 2.77217829,0.181818182 L0.0320630652,0.181818182 L-7.27595761e-12,0.295758721 C0.000283743932,0.295758721 1.31742311,0.571162737 2.58065113,1.60263953 C3.78854908,2.58916992 4.18181818,3.81818182 4.18181818,3.81818182 L3.59673818,0.788451353 Z" id="shape" fill="#F9A533"></path>
                </g>
            </g>
        </g>
    </g>
</svg>